<svg width="367" height="158" viewBox="0 0 367 158" fill="none" xmlns="http://www.w3.org/2000/svg">
  <path d="M32 134.774C46.338 130.685 60.5 127 75.5 124.5C90.5 122 87.2036 121.49 89 121C93.7518 119.704 89.9104 118.296 94.6551 116.982C97.3641 116.232 99.9184 115.034 102.632 114.261C107.143 112.977 111.647 111.689 116.145 110.354C122.977 108.325 129.656 105.836 136.495 103.842C141.652 102.337 145.53 102.488 150.5 100.5C154.616 98.8536 162.5 96 162.5 96C162.5 96 168.356 94.5525 170 94C172.274 93.2356 175.196 91.1777 177.5 90.5C180.812 89.526 182.608 89.6359 186 89C189.596 88.3258 192.685 84.9562 196.266 84.1777C200.9 83.1702 205.15 81.0231 209.79 80.0379C214.67 79.0017 219.472 78.0037 224.163 76.2702C228.267 74.7537 232.449 73.4679 236.548 71.9327C240.484 70.4583 244.538 69.426 248.316 67.5604C251.429 66.0228 254.698 64.8318 257.944 63.6066C262.654 61.8295 267.254 59.9474 272.038 58.3737C278.011 56.4094 282.852 52.421 288.318 49.4778C291.551 47.7372 297.103 47.8936 300.5 46.5C302.91 45.5111 306.985 43.6466 309.5 43C313.949 41.8559 314.526 39.6842 318.971 38.5353C323.605 37.338 328.217 36.331 332.74 34.7676C333.821 34.3938 334.895 34.0083 335.926 33.5117C336.677 33.1502 337.484 33.159 338.228 32.8373C338.989 32.5084 349.241 30.8793 350 30.5" stroke="black" stroke-width="63" stroke-linecap="round"/>
</svg>
